<svg xmlns="http://www.w3.org/2000/svg" xmlns:link="http://www.w3.org/1999/xlink" width="861" height="431" view_box="0 0 861 431">\n\n<desc>Généré par Mocodo 2.3.7 le Mon, 01 Mar 2021 06:17:45</desc><rect id="frame" width="861" height="431" x="0" y="0" fill="#f7f7f7" stroke="none" stroke-width="0"/><line x1="575" x2="679" y1="245" y2="388" stroke="#4393c3" stroke-width="2"/><text x="638" y="322.261" fill="#b2182b" font-family="Verdana" font-size="12">1,1</text><line x1="790" x2="679" y1="388" y2="388" stroke="#4393c3" stroke-width="2"/><text x="701" y="405" fill="#b2182b" font-family="Verdana" font-size="12">0,N</text><g id="association-get"><path fill="#92c5de" stroke="#92c5de" stroke-width="0" d="M 682 363 a 14 14 90 0 1 14 14 V 388 h -34 V 377 a 14 14 90 0 1 14 -14"/><path fill="#d1e5f0" stroke="#d1e5f0" stroke-width="0" d="M 696 388.0 v 11 a 14 14 90 0 1 -14 14 H 676 a 14 14 90 0 1 -14 -14 V 388.0 H 34"/><rect width="34" height="50" x="662" y="363" fill="none" stroke="#4393c3" stroke-width="2" rx="14"/><line x1="662" x2="696" y1="388" y2="388" stroke="#4393c3" stroke-width="1"/><text x="669" y="380.7" fill="#000" font-family="Verdana" font-size="12">get</text></g><line x1="280" x2="181" y1="245" y2="388" stroke="#4393c3" stroke-width="2"/><text x="207" y="310.171" fill="#b2182b" font-family="Verdana" font-size="12">1,1</text><line x1="69" x2="181" y1="388" y2="388" stroke="#4393c3" stroke-width="2"/><text x="121" y="405" fill="#b2182b" font-family="Verdana" font-size="12">0,N</text><g id="association-deserve"><path fill="#92c5de" stroke="#92c5de" stroke-width="0" d="M 198 363 a 14 14 90 0 1 14 14 V 388 h -62 V 377 a 14 14 90 0 1 14 -14"/><path fill="#d1e5f0" stroke="#d1e5f0" stroke-width="0" d="M 212 388.0 v 11 a 14 14 90 0 1 -14 14 H 164 a 14 14 90 0 1 -14 -14 V 388.0 H 62"/><rect width="62" height="50" x="150" y="363" fill="none" stroke="#4393c3" stroke-width="2" rx="14"/><line x1="150" x2="212" y1="388" y2="388" stroke="#4393c3" stroke-width="1"/><text x="157" y="380.7" fill="#000" font-family="Verdana" font-size="12">deserve</text></g><line x1="575" x2="449" y1="245" y2="127" stroke="#4393c3" stroke-width="2"/><text x="491" y="200.939" fill="#b2182b" font-family="Verdana" font-size="12">1,1</text><line x1="280" x2="449" y1="245" y2="127" stroke="#4393c3" stroke-width="2"/><text x="332" y="223.862" fill="#b2182b" font-family="Verdana" font-size="12">0,N</text><g id="association-create"><path fill="#92c5de" stroke="#92c5de" stroke-width="0" d="M 462 102 a 14 14 90 0 1 14 14 V 127 h -54 V 116 a 14 14 90 0 1 14 -14"/><path fill="#d1e5f0" stroke="#d1e5f0" stroke-width="0" d="M 476 127.0 v 11 a 14 14 90 0 1 -14 14 H 436 a 14 14 90 0 1 -14 -14 V 127.0 H 54"/><rect width="54" height="50" x="422" y="102" fill="none" stroke="#4393c3" stroke-width="2" rx="14"/><line x1="422" x2="476" y1="127" y2="127" stroke="#4393c3" stroke-width="1"/><text x="429" y="119.7" fill="#000" font-family="Verdana" font-size="12">create</text></g><line x1="449" x2="280" y1="43" y2="43" stroke="#4393c3" stroke-width="2"/><text x="396" y="60" fill="#b2182b" font-family="Verdana" font-size="12">0,N</text><line x1="280" x2="280" y1="245" y2="43" stroke="#4393c3" stroke-width="2"/><text x="253" y="152" fill="#b2182b" font-family="Verdana" font-size="12">0,N</text><g id="association-prefer"><path fill="#92c5de" stroke="#92c5de" stroke-width="0" d="M 292 18 a 14 14 90 0 1 14 14 V 43 h -52 V 32 a 14 14 90 0 1 14 -14"/><path fill="#d1e5f0" stroke="#d1e5f0" stroke-width="0" d="M 306 43.0 v 11 a 14 14 90 0 1 -14 14 H 268 a 14 14 90 0 1 -14 -14 V 43.0 H 52"/><rect width="52" height="50" x="254" y="18" fill="none" stroke="#4393c3" stroke-width="2" rx="14"/><line x1="254" x2="306" y1="43" y2="43" stroke="#4393c3" stroke-width="1"/><text x="261" y="35.7" fill="#000" font-family="Verdana" font-size="12">prefer</text></g><line x1="69" x2="181" y1="245" y2="245" stroke="#4393c3" stroke-width="2"/><text x="134" y="262" fill="#b2182b" font-family="Verdana" font-size="12">1,N</text><line x1="280" x2="181" y1="245" y2="245" stroke="#4393c3" stroke-width="2"/><text x="207" y="237" fill="#b2182b" font-family="Verdana" font-size="12">1,1</text><g id="association-stay"><path fill="#92c5de" stroke="#92c5de" stroke-width="0" d="M 187 220 a 14 14 90 0 1 14 14 V 245 h -40 V 234 a 14 14 90 0 1 14 -14"/><path fill="#d1e5f0" stroke="#d1e5f0" stroke-width="0" d="M 201 245.0 v 11 a 14 14 90 0 1 -14 14 H 175 a 14 14 90 0 1 -14 -14 V 245.0 H 40"/><rect width="40" height="50" x="161" y="220" fill="none" stroke="#4393c3" stroke-width="2" rx="14"/><line x1="161" x2="201" y1="245" y2="245" stroke="#4393c3" stroke-width="1"/><text x="168" y="237.7" fill="#000" font-family="Verdana" font-size="12">stay</text></g><line x1="449" x2="359" y1="388" y2="388" stroke="#4393c3" stroke-width="2"/><text x="388" y="405" fill="#b2182b" font-family="Verdana" font-size="12">1,1</text><line x1="280" x2="359" y1="245" y2="388" stroke="#4393c3" stroke-width="2"/><text x="304.259" y="347" fill="#b2182b" font-family="Verdana" font-size="12">0,N</text><g id="association-write"><path fill="#92c5de" stroke="#92c5de" stroke-width="0" d="M 368 363 a 14 14 90 0 1 14 14 V 388 h -46 V 377 a 14 14 90 0 1 14 -14"/><path fill="#d1e5f0" stroke="#d1e5f0" stroke-width="0" d="M 382 388.0 v 11 a 14 14 90 0 1 -14 14 H 350 a 14 14 90 0 1 -14 -14 V 388.0 H 46"/><rect width="46" height="50" x="336" y="363" fill="none" stroke="#4393c3" stroke-width="2" rx="14"/><line x1="336" x2="382" y1="388" y2="388" stroke="#4393c3" stroke-width="1"/><text x="343" y="380.7" fill="#000" font-family="Verdana" font-size="12">write</text></g><line x1="575" x2="449" y1="245" y2="245" stroke="#4393c3" stroke-width="2"/><text x="490" y="262" fill="#b2182b" font-family="Verdana" font-size="12">1,N</text><line x1="280" x2="449" y1="245" y2="245" stroke="#4393c3" stroke-width="2"/><text x="332" y="262" fill="#b2182b" font-family="Verdana" font-size="12">0,N</text><g id="association-subscribe"><path fill="#92c5de" stroke="#92c5de" stroke-width="0" d="M 471 220 a 14 14 90 0 1 14 14 V 245 h -72 V 234 a 14 14 90 0 1 14 -14"/><path fill="#d1e5f0" stroke="#d1e5f0" stroke-width="0" d="M 485 245.0 v 11 a 14 14 90 0 1 -14 14 H 427 a 14 14 90 0 1 -14 -14 V 245.0 H 72"/><rect width="72" height="50" x="413" y="220" fill="none" stroke="#4393c3" stroke-width="2" rx="14"/><line x1="413" x2="485" y1="245" y2="245" stroke="#4393c3" stroke-width="1"/><text x="420" y="237.7" fill="#000" font-family="Verdana" font-size="12">subscribe</text></g><line x1="790" x2="679" y1="245" y2="245" stroke="#4393c3" stroke-width="2"/><text x="703" y="262" fill="#b2182b" font-family="Verdana" font-size="12">1,N</text><line x1="575" x2="679" y1="245" y2="245" stroke="#4393c3" stroke-width="2"/><text x="638" y="237" fill="#b2182b" font-family="Verdana" font-size="12">1,1</text><g id="association-at"><path fill="#92c5de" stroke="#92c5de" stroke-width="0" d="M 679 220 a 14 14 90 0 1 14 14 V 245 h -28 V 234 a 14 14 90 0 1 14 -14"/><path fill="#d1e5f0" stroke="#d1e5f0" stroke-width="0" d="M 693 245.0 v 11 a 14 14 90 0 1 -14 14 H 679 a 14 14 90 0 1 -14 -14 V 245.0 H 28"/><rect width="28" height="50" x="665" y="220" fill="none" stroke="#4393c3" stroke-width="2" rx="14"/><line x1="665" x2="693" y1="245" y2="245" stroke="#4393c3" stroke-width="1"/><text x="672" y="237.7" fill="#000" font-family="Verdana" font-size="12">at</text></g><line x1="575" x2="575" y1="245" y2="43" stroke="#4393c3" stroke-width="2"/><text x="580" y="152" fill="#b2182b" font-family="Verdana" font-size="12">1,1</text><line x1="449" x2="575" y1="43" y2="43" stroke="#4393c3" stroke-width="2"/><text x="480" y="60" fill="#b2182b" font-family="Verdana" font-size="12">0,N</text><g id="association-have"><path fill="#92c5de" stroke="#92c5de" stroke-width="0" d="M 583 18 a 14 14 90 0 1 14 14 V 43 h -44 V 32 a 14 14 90 0 1 14 -14"/><path fill="#d1e5f0" stroke="#d1e5f0" stroke-width="0" d="M 597 43.0 v 11 a 14 14 90 0 1 -14 14 H 567 a 14 14 90 0 1 -14 -14 V 43.0 H 44"/><rect width="44" height="50" x="553" y="18" fill="none" stroke="#4393c3" stroke-width="2" rx="14"/><line x1="553" x2="597" y1="43" y2="43" stroke="#4393c3" stroke-width="1"/><text x="560" y="35.7" fill="#000" font-family="Verdana" font-size="12">have</text></g><line x1="449" x2="575" y1="388" y2="388" stroke="#4393c3" stroke-width="2"/><text x="489" y="405" fill="#b2182b" font-family="Verdana" font-size="12">1,1</text><line x1="575" x2="575" y1="245" y2="388" stroke="#4393c3" stroke-width="2"/><text x="548" y="347" fill="#b2182b" font-family="Verdana" font-size="12">0,N</text><g id="association-contain"><path fill="#92c5de" stroke="#92c5de" stroke-width="0" d="M 591 363 a 14 14 90 0 1 14 14 V 388 h -60 V 377 a 14 14 90 0 1 14 -14"/><path fill="#d1e5f0" stroke="#d1e5f0" stroke-width="0" d="M 605 388.0 v 11 a 14 14 90 0 1 -14 14 H 559 a 14 14 90 0 1 -14 -14 V 388.0 H 60"/><rect width="60" height="50" x="545" y="363" fill="none" stroke="#4393c3" stroke-width="2" rx="14"/><line x1="545" x2="605" y1="388" y2="388" stroke="#4393c3" stroke-width="1"/><text x="552" y="380.7" fill="#000" font-family="Verdana" font-size="12">contain</text></g><g id="entity-ACTIVITY_STATUT"><g id="frame-ACTIVITY_STATUT"><rect width="124" height="25" x="728" y="363" fill="#f4a582" stroke="#f4a582" stroke-width="0"/><rect width="124" height="25" x="728" y="388" fill="#fddbc7" stroke="#fddbc7" stroke-width="0"/><rect width="124" height="50" x="728" y="363" fill="none" stroke="#d6604d" stroke-width="2"/><line x1="728" x2="852" y1="388" y2="388" stroke="#d6604d" stroke-width="1"/></g><text x="733" y="380.7" fill="#000" font-family="Verdana" font-size="12">ACTIVITY_STATUT</text><text x="733" y="405.8" fill="#000" font-family="Verdana" font-size="12">name</text><line x1="733" x2="768" y1="408" y2="408" stroke="#000" stroke-width="1"/></g><g id="entity-ACTIVITY_PLACE"><g id="frame-ACTIVITY_PLACE"><rect width="120" height="25" x="730" y="152" fill="#f4a582" stroke="#f4a582" stroke-width="0"/><rect width="120" height="161" x="730" y="177" fill="#fddbc7" stroke="#fddbc7" stroke-width="0"/><rect width="120" height="186" x="730" y="152" fill="none" stroke="#d6604d" stroke-width="2"/><line x1="730" x2="850" y1="177" y2="177" stroke="#d6604d" stroke-width="1"/></g><text x="738" y="169.7" fill="#000" font-family="Verdana" font-size="12">ACTIVITY_PLACE</text><text x="735" y="194.7" fill="#000" font-family="Verdana" font-size="12">address</text><line x1="735" x2="783" y1="197" y2="197" stroke="#000" stroke-width="1"/><text x="735" y="211.7" fill="#000" font-family="Verdana" font-size="12">city</text><text x="735" y="228.7" fill="#000" font-family="Verdana" font-size="12">department</text><text x="735" y="245.8" fill="#000" font-family="Verdana" font-size="12">google_place_key</text><text x="735" y="262.8" fill="#000" font-family="Verdana" font-size="12">lat</text><text x="735" y="279.8" fill="#000" font-family="Verdana" font-size="12">lng</text><text x="735" y="296.8" fill="#000" font-family="Verdana" font-size="12">region</text><text x="735" y="313.8" fill="#000" font-family="Verdana" font-size="12">private</text><text x="735" y="330.8" fill="#000" font-family="Verdana" font-size="12">indoor</text></g><g id="entity-USER_GRADE"><g id="frame-USER_GRADE"><rect width="94" height="25" x="22" y="354" fill="#f4a582" stroke="#f4a582" stroke-width="0"/><rect width="94" height="43" x="22" y="379" fill="#fddbc7" stroke="#fddbc7" stroke-width="0"/><rect width="94" height="68" x="22" y="354" fill="none" stroke="#d6604d" stroke-width="2"/><line x1="22" x2="116" y1="379" y2="379" stroke="#d6604d" stroke-width="1"/></g><text x="27" y="371.7" fill="#000" font-family="Verdana" font-size="12">USER_GRADE</text><text x="27" y="396.8" fill="#000" font-family="Verdana" font-size="12">name</text><line x1="27" x2="62" y1="399" y2="399" stroke="#000" stroke-width="1"/><text x="27" y="413.8" fill="#000" font-family="Verdana" font-size="12">point</text></g><g id="entity-USER"><g id="frame-USER"><rect width="94" height="25" x="233" y="160" fill="#f4a582" stroke="#f4a582" stroke-width="0"/><rect width="94" height="145" x="233" y="185" fill="#fddbc7" stroke="#fddbc7" stroke-width="0"/><rect width="94" height="170" x="233" y="160" fill="none" stroke="#d6604d" stroke-width="2"/><line x1="233" x2="327" y1="185" y2="185" stroke="#d6604d" stroke-width="1"/></g><text x="263" y="177.7" fill="#000" font-family="Verdana" font-size="12">USER</text><text x="238" y="202.7" fill="#000" font-family="Verdana" font-size="12">email</text><line x1="238" x2="272" y1="205" y2="205" stroke="#000" stroke-width="1"/><text x="238" y="219.7" fill="#000" font-family="Verdana" font-size="12">pseudo</text><text x="238" y="236.7" fill="#000" font-family="Verdana" font-size="12">password</text><text x="238" y="253.8" fill="#000" font-family="Verdana" font-size="12">lastname</text><text x="238" y="270.8" fill="#000" font-family="Verdana" font-size="12">firstname</text><text x="238" y="287.8" fill="#000" font-family="Verdana" font-size="12">avatar</text><text x="238" y="304.8" fill="#000" font-family="Verdana" font-size="12">reward_count</text><text x="238" y="321.8" fill="#000" font-family="Verdana" font-size="12">admin</text></g><g id="entity-ACTIVITY"><g id="frame-ACTIVITY"><rect width="116" height="25" x="517" y="160" fill="#f4a582" stroke="#f4a582" stroke-width="0"/><rect width="116" height="145" x="517" y="185" fill="#fddbc7" stroke="#fddbc7" stroke-width="0"/><rect width="116" height="170" x="517" y="160" fill="none" stroke="#d6604d" stroke-width="2"/><line x1="517" x2="633" y1="185" y2="185" stroke="#d6604d" stroke-width="1"/></g><text x="546" y="177.7" fill="#000" font-family="Verdana" font-size="12">ACTIVITY</text><text x="522" y="202.7" fill="#000" font-family="Verdana" font-size="12">title</text><line x1="522" x2="546" y1="205" y2="205" stroke="#000" stroke-width="1"/><text x="522" y="219.7" fill="#000" font-family="Verdana" font-size="12">description</text><text x="522" y="236.7" fill="#000" font-family="Verdana" font-size="12">illustration</text><text x="522" y="253.8" fill="#000" font-family="Verdana" font-size="12">date</text><text x="522" y="270.8" fill="#000" font-family="Verdana" font-size="12">time</text><text x="522" y="287.8" fill="#000" font-family="Verdana" font-size="12">duration</text><text x="522" y="304.8" fill="#000" font-family="Verdana" font-size="12">participant_count</text><text x="522" y="321.8" fill="#000" font-family="Verdana" font-size="12">min_participant</text></g><g id="entity-MESSAGE"><g id="frame-MESSAGE"><rect width="70" height="25" x="414" y="363" fill="#f4a582" stroke="#f4a582" stroke-width="0"/><rect width="70" height="25" x="414" y="388" fill="#fddbc7" stroke="#fddbc7" stroke-width="0"/><rect width="70" height="50" x="414" y="363" fill="none" stroke="#d6604d" stroke-width="2"/><line x1="414" x2="484" y1="388" y2="388" stroke="#d6604d" stroke-width="1"/></g><text x="419" y="380.7" fill="#000" font-family="Verdana" font-size="12">MESSAGE</text><text x="419" y="405.8" fill="#000" font-family="Verdana" font-size="12">comment</text><line x1="419" x2="476" y1="408" y2="408" stroke="#000" stroke-width="1"/></g><g id="entity-SPORT"><g id="frame-SPORT"><rect width="52" height="25" x="423" y="9" fill="#f4a582" stroke="#f4a582" stroke-width="0"/><rect width="52" height="43" x="423" y="34" fill="#fddbc7" stroke="#fddbc7" stroke-width="0"/><rect width="52" height="68" x="423" y="9" fill="none" stroke="#d6604d" stroke-width="2"/><line x1="423" x2="475" y1="34" y2="34" stroke="#d6604d" stroke-width="1"/></g><text x="428" y="26.7" fill="#000" font-family="Verdana" font-size="12">SPORT</text><text x="428" y="51.8" fill="#000" font-family="Verdana" font-size="12">name</text><line x1="428" x2="463" y1="54" y2="54" stroke="#000" stroke-width="1"/><text x="428" y="68.8" fill="#000" font-family="Verdana" font-size="12">icon</text></g><g id="entity-USER_PLACE"><g id="frame-USER_PLACE"><rect width="120" height="25" x="9" y="169" fill="#f4a582" stroke="#f4a582" stroke-width="0"/><rect width="120" height="127" x="9" y="194" fill="#fddbc7" stroke="#fddbc7" stroke-width="0"/><rect width="120" height="152" x="9" y="169" fill="none" stroke="#d6604d" stroke-width="2"/><line x1="9" x2="129" y1="194" y2="194" stroke="#d6604d" stroke-width="1"/></g><text x="29" y="186.7" fill="#000" font-family="Verdana" font-size="12">USER_PLACE</text><text x="14" y="211.7" fill="#000" font-family="Verdana" font-size="12">address</text><line x1="14" x2="62" y1="214" y2="214" stroke="#000" stroke-width="1"/><text x="14" y="228.7" fill="#000" font-family="Verdana" font-size="12">city</text><text x="14" y="245.8" fill="#000" font-family="Verdana" font-size="12">department</text><text x="14" y="262.8" fill="#000" font-family="Verdana" font-size="12">google_place_key</text><text x="14" y="279.8" fill="#000" font-family="Verdana" font-size="12">lat</text><text x="14" y="296.8" fill="#000" font-family="Verdana" font-size="12">lng</text><text x="14" y="313.8" fill="#000" font-family="Verdana" font-size="12">region</text></g></svg>